<?xml version="1.0" encoding="utf-8"?>
<!-- Generator: Adobe Illustrator 25.3.1, SVG Export Plug-In . SVG Version: 6.00 Build 0)  -->
<svg version="1.1" id="Layer_1" xmlns="http://www.w3.org/2000/svg" xmlns:xlink="http://www.w3.org/1999/xlink" x="0px" y="0px"
	 viewBox="0 0 141.781 111.903" enable-background="new 0 0 141.781 111.903" xml:space="preserve">
<g>
	<g>
		<g>
			
				<image overflow="visible" width="130" height="141" xlink:href="3049729C43A5906D.png"  transform="matrix(0.24 0 0 0.24 53.8148 11.0464)">
			</image>
			
				<image overflow="visible" width="115" height="21" xlink:href="3049729C43A5906F.png"  transform="matrix(0.24 0 0 0.24 56.2148 3.8464)">
			</image>
		</g>
	</g>
	<path fill="#676766" stroke="#000000" stroke-width="0.25" stroke-miterlimit="10" d="M88.911,15.899
		c1.393-0.029,2.553,1.45,2.59,3.315L91.887,36.9c0.039,1.86-1.059,3.39-2.451,3.42c-1.387,0.029-2.552-1.451-2.593-3.311
		L86.461,19.32C86.421,17.459,87.519,15.929,88.911,15.899z"/>
	<path fill="#676766" stroke="#000000" stroke-width="0.25" stroke-miterlimit="10" d="M49.281,15.868
		c1.393-0.029,2.553,1.45,2.59,3.315l0.386,17.686c0.039,1.86-1.059,3.39-2.451,3.42c-1.387,0.029-2.552-1.451-2.593-3.311
		L46.83,19.29C46.791,17.429,47.888,15.899,49.281,15.868z"/>
</g>
<g>
	<path fill="#999999" stroke="#000000" stroke-miterlimit="10" d="M131.45,48.387H9.181c-3.259,0-5.9,2.642-5.9,5.9v48.394
		c0,3.259,2.642,5.9,5.9,5.9h122.27c3.259,0,5.9-2.642,5.9-5.9V54.287C137.35,51.028,134.709,48.387,131.45,48.387z"/>
</g>
<g>
	<path fill="#999999" stroke="#000000" stroke-miterlimit="10" d="M1198.025,115.179L-2.508-181.844
		c-3.617,0-6.549-2.932-6.549-6.549v-47.121c0-3.604,2.921-6.525,6.525-6.525L1198.025,54.985V115.179z"/>
</g>
<path fill="#999999" stroke="#000000" stroke-miterlimit="10" d="M119.719-103.18H92.002c-2.924,0-5.295-2.37-5.295-5.295
	l1073.011,223.654h38.306L125.013-108.475C125.013-105.551,122.643-103.18,119.719-103.18z"/>
<g>
	<path fill="#999999" stroke="#000000" stroke-miterlimit="10" d="M135.438-103.18h27.717c2.924,0,5.295-2.37,5.295-5.295
		L1241.46,115.179h-38.306L130.143-108.475C130.143-105.551,132.514-103.18,135.438-103.18z"/>
</g>
<g>
	<path fill="#999999" stroke="#000000" stroke-miterlimit="10" d="M1198.025-9.952L-2.508-306.975c-3.617,0-6.549,2.932-6.549,6.549
		v47.121c0,3.604,2.921,6.525,6.525,6.525L1198.025,50.243V-9.952z"/>
</g>
</svg>
