<svg id="Layer_1" data-name="Layer 1" xmlns="http://www.w3.org/2000/svg" viewBox="0 0 1765.71 1151.65"><defs><style>.cls-1,.cls-2{fill:#010101;}.cls-1,.cls-2,.cls-3,.cls-4,.cls-5{stroke:#010101;}.cls-1,.cls-3,.cls-5{stroke-miterlimit:10;}.cls-3{fill:none;}.cls-4,.cls-5,.cls-7{fill:#fff;}.cls-6{fill:#ccc;}.cls-8{fill:#999;}</style></defs><path class="cls-1" d="M1456.14,776.62l261.7,2.7V626.38h17V796.32l-278.69-2.71Z"/><path class="cls-1" d="M1717.84,189.65V36.71H1564.9v-17h169.93V189.65Z"/><rect class="cls-2" x="1717.84" y="189.65" width="16.99" height="540.39"/><rect class="cls-2" x="850.47" y="19.71" width="714.42" height="16.99"/><path class="cls-1" d="M881.76,36.71h-831V189.65h-17V19.71h848Z"/><rect class="cls-2" x="1457.84" y="570.3" width="16.99" height="209.02"/><rect class="cls-2" x="1474.83" y="318.8" width="243.01" height="16.99"/><path class="cls-3" d="M1466.34,298.41h71.86a71.86,71.86,0,0,0-71.86-71.87"/><rect class="cls-2" x="1457.84" y="36.71" width="16.99" height="188.29"/><rect class="cls-4" x="1456.14" y="471.74" width="16.99" height="8.5"/><rect class="cls-4" x="1456.14" y="391.87" width="16.99" height="8.5"/><rect class="cls-4" x="1460.39" y="480.24" width="8.5" height="88.37"/><rect class="cls-2" x="1457.84" y="298.41" width="16.99" height="95.16"/><rect class="cls-4" x="1546.75" y="345.99" width="118.95" height="8.5"/><path class="cls-5" d="M1563.74,346l11.9-6.8a11.83,11.83,0,0,1,5.1-1.7h51a11.83,11.83,0,0,1,5.09,1.7l11.9,6.8Z"/><path class="cls-3" d="M1616.42,346v-6.8m-5.1,6.8v-6.8m-5.09,6.8v-6.8M1596,346v-6.8m5.1,6.8v-6.8"/><rect class="cls-4" x="1717.84" y="568.61" width="16.99" height="169.94"/><path class="cls-3" d="M1726.34,568.61V738.54"/><rect class="cls-4" x="1717.84" y="378.28" width="16.99" height="169.94"/><path class="cls-3" d="M1726.34,378.28V548.21"/><rect class="cls-4" x="1717.84" y="91.85" width="16.99" height="169.94"/><path class="cls-3" d="M1726.34,91.85V261.79"/><rect class="cls-4" x="1253.92" y="19.71" width="169.94" height="16.99"/><path class="cls-3" d="M1253.92,28.21h169.93"/><rect class="cls-4" x="1052.54" y="19.71" width="169.94" height="16.99"/><path class="cls-3" d="M1052.54,28.21h169.94"/><rect class="cls-4" x="851.17" y="19.71" width="169.94" height="16.99"/><path class="cls-3" d="M851.17,28.21h169.94"/><rect class="cls-4" x="33.78" y="491.71" width="16.99" height="8.5"/><rect class="cls-4" x="33.78" y="313.79" width="16.99" height="8.5"/><rect class="cls-4" x="38.02" y="455" width="8.5" height="93.21"/><rect class="cls-4" x="38.02" y="265.78" width="8.5" height="93.21"/><rect class="cls-2" x="33.78" y="548.21" width="16.99" height="235.66"/><rect class="cls-2" x="33.78" y="189.65" width="16.99" height="76.13"/><rect class="cls-4" x="127.19" y="19.71" width="169.94" height="16.99"/><path class="cls-3" d="M127.19,28.21H297.12"/><rect class="cls-4" x="1510.52" y="19.54" width="169.94" height="16.99"/><path class="cls-3" d="M1510.52,28h169.93"/><path class="cls-3" d="M1451.67,788.49H1621.6"/><path class="cls-1" d="M844.14,779.43l2.84,350.4H669.16v-21.36h160l-2.83-329Z"/><path class="cls-1" d="M212.15,1129.83H34.33V781.56H52.12v326.91h160Z"/><rect class="cls-2" x="212.15" y="1108.47" width="565.47" height="21.37"/><rect class="cls-2" x="347.3" y="793.46" width="17.78" height="315"/><path class="cls-3" d="M369.54,783.87v90.36"/><rect class="cls-4" x="631.27" y="1108.47" width="177.82" height="21.37"/><path class="cls-3" d="M808,1119.15H630.19"/><rect class="cls-4" x="390.19" y="1108.47" width="177.82" height="21.37"/><path class="cls-3" d="M568,1119.15H390.19"/><path class="cls-3" d="M287.64,1119.15H183.58"/><path class="cls-3" d="M450.39,783.87c0,49.91-36.19,90.36-80.85,90.36"/><rect class="cls-1" x="147.65" y="777.43" width="221.89" height="16.99"/><rect class="cls-4" x="330.58" y="19.54" width="169.94" height="16.99"/><path class="cls-3" d="M330.58,28H500.52"/><rect class="cls-4" x="534.19" y="19.54" width="169.94" height="16.99"/><path class="cls-3" d="M534.19,28H704.12"/><polyline class="cls-2" points="826.05 776.39 1456.14 776.39 1456.14 793.46 826.05 793.46"/><rect class="cls-1" x="452.04" y="777.43" width="291.58" height="16.99"/><rect class="cls-1" x="437.7" y="942.47" width="315" height="16.99" transform="translate(1546.17 355.76) rotate(90)"/><path class="cls-3" d="M747.29,776.55c0,49.91,31,77.13,75.2,77.13"/><path class="cls-3" d="M821.49,854.21V777.08"/><rect class="cls-4" x="930.57" y="776.43" width="169.94" height="16.99"/><path class="cls-3" d="M930.57,784.92H1100.5"/><rect class="cls-4" x="1219.51" y="775.38" width="169.94" height="16.99"/><path class="cls-3" d="M1219.51,783.87h169.94"/><line class="cls-2" x1="364.64" y1="784.87" x2="347.65" y2="784.87"/><line class="cls-2" x1="186.26" y1="1109.47" x2="186.26" y2="1130.83"/><path class="cls-3" d="M72.45,793.25v77.13c41.54,0,75.2-27.22,75.2-77.13"/><rect class="cls-4" x="110.77" y="1109.47" width="104.06" height="21.37"/><path class="cls-3" d="M214.83,1120.15H110.77"/><polygon class="cls-1" points="50.66 796.19 72.45 795.42 72.45 778.43 50.66 779.2 50.66 796.19"/><path class="cls-6" d="M54,906.24h62.7a0,0,0,0,1,0,0V1108.1a0,0,0,0,1,0,0H72.4a18.4,18.4,0,0,1-18.4-18.4V906.24a0,0,0,0,1,0,0Z" transform="translate(170.71 2014.35) rotate(-180)"/><ellipse class="cls-7" cx="82.09" cy="943.79" rx="20.85" ry="27.17"/><ellipse class="cls-7" cx="82.09" cy="1009.17" rx="20.85" ry="27.17"/><ellipse class="cls-7" cx="82.09" cy="1073.28" rx="20.85" ry="27.17"/><rect class="cls-8" x="54.12" y="943.47" width="15.45" height="3.38" transform="translate(123.68 1890.32) rotate(-180)"/><rect class="cls-8" x="54.11" y="1006.79" width="15.45" height="3.38" transform="translate(123.68 2016.96) rotate(-180)"/><rect class="cls-8" x="54.11" y="1072.42" width="15.45" height="3.38" transform="translate(123.68 2148.22) rotate(-180)"/><rect class="cls-2" x="214.83" y="870.38" width="132.29" height="8.5"/><rect class="cls-2" x="214.83" y="1032.38" width="132.29" height="8.5"/><rect class="cls-2" x="214.83" y="951.38" width="132.29" height="8.5"/><rect class="cls-2" x="214.83" y="844.91" width="6.2" height="30.32"/><rect class="cls-2" x="214.83" y="927.64" width="7.46" height="31.97"/><rect class="cls-2" x="214.83" y="1007.83" width="7.46" height="32.52"/><rect class="cls-2" x="214.83" y="1089.08" width="7.46" height="20.39"/><path class="cls-3" d="M214.56,798.73h45.85c0,24.95-16.18,45.18-45.85,45.18"/><path class="cls-3" d="M214.56,882.46h45.85c0,24.95-16.18,45.18-45.85,45.18"/><path class="cls-3" d="M215,962.65h45.85c0,25-16.18,45.18-45.85,45.18"/><path class="cls-3" d="M215,1044h45.85c0,25-16.18,45.18-45.85,45.18"/></svg>