<svg width="28" height="28" viewBox="0 0 28 28" fill="none" xmlns="http://www.w3.org/2000/svg">
<path d="M10.2629 0.666748L9.41658 4.46623C8.93522 4.69787 8.47506 4.96466 8.03377 5.26571L4.32023 4.09644L0.583252 10.5704L3.39836 13.1485C3.28837 13.9649 3.33819 14.3673 3.39836 14.8516L0.583252 17.4298L4.32023 23.9037L8.03377 22.7345C8.47506 23.0355 8.93522 23.3023 9.41658 23.5339L10.2629 27.3334H17.7369L18.5833 23.5339C19.0646 23.3023 19.5248 23.0355 19.9661 22.7345L23.6796 23.9037L27.4166 17.4298L24.6015 14.8516C24.6245 14.5682 24.6663 14.2846 24.6666 14.0001C24.6677 13.7069 24.6215 13.4109 24.6015 13.1485L27.4166 10.5704L23.6796 4.09644L19.9661 5.26571C19.5248 4.96466 19.0646 4.69787 18.5833 4.46623L17.7369 0.666748H10.2629ZM12.4036 3.33341H15.5963L16.2551 6.29175L16.9166 6.55217C17.6648 6.84519 18.3643 7.24854 18.9921 7.75008L19.5494 8.19279L22.44 7.28394L24.0364 10.0496L21.802 12.099L21.9088 12.8022C22.0344 13.5798 22.01 14.4746 21.9088 15.198L21.802 15.9011L24.0364 17.9506L22.44 20.7162L19.5494 19.8074L18.9921 20.2501C18.3643 20.7516 17.6648 21.155 16.9166 21.448L16.2551 21.7084L15.5963 24.6667H12.4036L11.7447 21.7084L11.0833 21.448C10.335 21.155 9.63557 20.7516 9.00773 20.2501L8.45044 19.8074L5.55981 20.7162L3.96346 17.9506L6.19783 15.9011L6.09106 15.198C5.96083 14.4047 5.98083 13.4968 6.09106 12.8022L6.19783 12.099L3.96346 10.0496L5.55981 7.28394L8.45044 8.19279L9.00773 7.75008C9.63557 7.24854 10.335 6.84519 11.0833 6.55217L11.7447 6.29175L12.4036 3.33341ZM13.9999 8.66675C11.0702 8.66675 8.66658 11.0704 8.66658 14.0001C8.66658 16.9298 11.0702 19.3334 13.9999 19.3334C16.9296 19.3334 19.3333 16.9298 19.3333 14.0001C19.3333 11.0704 16.9296 8.66675 13.9999 8.66675ZM13.9999 11.3334C15.4885 11.3334 16.6666 12.5115 16.6666 14.0001C16.6666 15.4886 15.4885 16.6667 13.9999 16.6667C12.5114 16.6667 11.3333 15.4886 11.3333 14.0001C11.3333 12.5115 12.5114 11.3334 13.9999 11.3334Z" fill="#A098AE"/>
</svg>
