<svg width="31" height="38" viewBox="0 0 31 38" fill="none" xmlns="http://www.w3.org/2000/svg">
<path fill-rule="evenodd" clip-rule="evenodd" d="M0 33.75C0 35.8212 1.70207 37.5 3.80208 37.5H26.6146C28.7146 37.5 30.4167 35.8212 30.4167 33.75C30.4167 30.8325 30.4167 26.0625 30.4167 23.3363C30.4167 21.5238 29.1024 19.9713 27.2952 19.6475C24.616 19.1663 19.9964 18.3375 17.3831 17.87C15.9447 17.6112 14.472 17.6112 13.0335 17.87C10.4202 18.3375 5.80071 19.1663 3.12151 19.6475C1.31425 19.9713 0 21.5238 0 23.3363V33.75ZM18.1334 20.545L20.0357 27.6788C20.2854 28.615 19.9508 29.6088 19.1828 30.2138C18.5339 30.7238 17.5111 31.5288 16.8014 32.0888C15.8699 32.8213 14.5468 32.8213 13.6153 32.0888C12.9055 31.5288 11.8828 30.7238 11.2339 30.2138C10.4659 29.6088 10.1313 28.615 10.381 27.6788L12.2833 20.545L3.57522 22.1062C2.97323 22.215 2.53472 22.7325 2.53472 23.3363V33.75C2.53472 34.44 3.1025 35 3.80208 35C9.10472 35 21.3119 35 26.6146 35C27.3142 35 27.8819 34.44 27.8819 33.75C27.8819 30.8325 27.8819 26.0625 27.8819 23.3363C27.8819 22.7325 27.4434 22.215 26.8414 22.1062L18.1334 20.545ZM15.4149 20.1788C15.2768 20.175 15.1399 20.175 15.0018 20.1788L12.8422 28.2812L15.1969 30.1337C15.2033 30.14 15.2134 30.14 15.2197 30.1337L17.5745 28.2812L15.4149 20.1788ZM15.2083 0C10.6623 0 6.97049 3.64125 6.97049 8.125C6.97049 12.6087 10.6623 16.25 15.2083 16.25C19.7544 16.25 23.4462 12.6087 23.4462 8.125C23.4462 3.64125 19.7544 0 15.2083 0ZM15.2083 2.5C18.3565 2.5 20.9115 5.02 20.9115 8.125C20.9115 11.23 18.3565 13.75 15.2083 13.75C12.0602 13.75 9.50521 11.23 9.50521 8.125C9.50521 5.02 12.0602 2.5 15.2083 2.5Z" fill="white"/>
</svg>
