<svg width="39" height="32" viewBox="0 0 39 32" fill="none" xmlns="http://www.w3.org/2000/svg">
<g clip-path="url(#clip0_605_2488)">
<path d="M18.4623 19.5875H15.2593C15.1166 19.5943 14.9748 19.5621 14.8498 19.4943C14.7248 19.4266 14.6216 19.3261 14.5518 19.2041C14.482 19.082 14.4484 18.9433 14.4547 18.8036C14.461 18.6639 14.507 18.5287 14.5875 18.4132L16.0631 15.8884C16.1275 15.7719 16.2228 15.6745 16.3388 15.6063C16.4549 15.5381 16.5875 15.5017 16.7229 15.5009H19.9379C20.079 15.4982 20.2182 15.5332 20.3406 15.6019C20.463 15.6706 20.5641 15.7706 20.6331 15.8911C20.702 16.0116 20.7362 16.1482 20.7321 16.2863C20.728 16.4244 20.6857 16.5588 20.6097 16.6752L19.1341 19.2C19.0677 19.3174 18.9704 19.4153 18.8522 19.4834C18.7341 19.5516 18.5995 19.5875 18.4623 19.5875Z" fill="#EC663B"/>
<path d="M10.7127 13.1876L22.0852 13.0936C22.2221 13.0948 22.3562 13.1312 22.4742 13.1993C22.5921 13.2673 22.6896 13.3645 22.757 13.4811L24.3166 16.1468C24.3898 16.2634 24.4285 16.3975 24.4285 16.5343C24.4285 16.6712 24.3898 16.8053 24.3166 16.9219L20.6457 22.5938C20.5665 22.7076 20.5208 22.8406 20.5136 22.9782C20.5064 23.1157 20.538 23.2526 20.6048 23.3737C20.6717 23.4949 20.7712 23.5958 20.8927 23.6654C21.0141 23.7349 21.1528 23.7704 21.2935 23.7681H24.1606C24.287 23.767 24.4112 23.7353 24.5221 23.6759C24.633 23.6165 24.7273 23.5312 24.7964 23.4275L29.199 16.9688C29.2846 16.846 29.3305 16.7007 29.3305 16.552C29.3305 16.4032 29.2846 16.2579 29.199 16.1351L24.8444 9.61765C24.7764 9.50942 24.6811 9.42015 24.5676 9.35844C24.4542 9.29674 24.3264 9.26466 24.1966 9.26534H12.0923C11.8164 9.26534 11.6364 9.26536 11.4685 9.10095V9.0305C11.0726 8.54903 11.3005 8.83087 11.0966 8.59601L8.25348 5.167C8.15866 5.05587 8.09866 4.92028 8.08068 4.77656C8.0627 4.63283 8.08752 4.48711 8.15214 4.35687C8.21677 4.22662 8.31843 4.11741 8.44495 4.0424C8.57147 3.96738 8.71745 3.92973 8.8653 3.93399L24.0646 4.02792C24.1819 4.03228 24.2969 4.06067 24.4023 4.11124C24.5077 4.1618 24.6011 4.23343 24.6764 4.3215L34.0216 16.0646C34.1218 16.1949 34.176 16.3536 34.176 16.5167C34.176 16.6799 34.1218 16.8385 34.0216 16.9688L26.188 27.6786C26.118 27.7769 26.0247 27.8572 25.916 27.9124C25.8073 27.9676 25.6866 27.9962 25.5641 27.9956H10.1609C10.0202 27.998 9.88157 27.9624 9.76012 27.8929C9.63867 27.8233 9.53911 27.7225 9.47226 27.6013C9.4054 27.4801 9.37386 27.3433 9.38106 27.2057C9.38827 27.0682 9.43395 26.9352 9.51311 26.8213L13.4479 21.1494C13.5265 21.0364 13.572 20.9045 13.5797 20.768C13.5874 20.6314 13.5569 20.4955 13.4915 20.3747C13.4261 20.2539 13.3283 20.1528 13.2085 20.0824C13.0888 20.012 12.9518 19.9749 12.8121 19.9751H9.87299C9.74888 19.9746 9.62644 20.0031 9.51586 20.0582C9.40527 20.1134 9.30974 20.1936 9.23719 20.2921L1.54755 30.7905C1.46954 30.9027 1.42404 31.0335 1.41586 31.169C1.40768 31.3045 1.43712 31.4396 1.50109 31.5601C1.56506 31.6805 1.66117 31.7817 1.77918 31.853C1.89719 31.9242 2.0327 31.9629 2.17134 31.9648H27.6155C27.7395 31.9644 27.8615 31.9354 27.972 31.8804C28.0824 31.8253 28.1781 31.7456 28.2513 31.6477L38.8201 16.9688C38.9141 16.8382 38.9645 16.6824 38.9645 16.5226C38.9645 16.3629 38.9141 16.207 38.8201 16.0764L26.8958 0.281859C26.8231 0.18706 26.7289 0.110119 26.6207 0.0571244C26.5124 0.00413006 26.393 -0.0234375 26.2719 -0.0234375H0.779766C0.641121 -0.0215062 0.505611 0.0171107 0.387601 0.0883744C0.269591 0.159638 0.17352 0.260884 0.10955 0.381307C0.045579 0.501731 0.0161085 0.636867 0.0242852 0.772362C0.032462 0.907858 0.0779613 1.03866 0.155971 1.15087L8.67336 12.2129C8.91129 12.5167 9.22148 12.759 9.57692 12.9186C9.93237 13.0783 10.3223 13.1504 10.7127 13.1288L10.2449 13.0584" fill="black"/>
</g>
<defs>
<clipPath id="clip0_605_2488">
<rect width="39" height="32" fill="white"/>
</clipPath>
</defs>
</svg>
