<svg id="Layer_1" data-name="Layer 1" xmlns="http://www.w3.org/2000/svg" viewBox="0 0 47.4 40.56"><defs><style>.cls-1{fill:#fff;}.cls-2{fill:#dd6e47;}</style></defs><path class="cls-1" d="M14,17l12.9-.1a.85.85,0,0,1,.77.44l1.76,3.09a.9.9,0,0,1,0,.91l-4.17,6.56A.88.88,0,0,0,26,29.28h3.24a.87.87,0,0,0,.73-.39l5-7.49a.86.86,0,0,0,0-1L30,12.87a.86.86,0,0,0-.73-.39H15.57c-.32,0-.52,0-.7-.2l-.08-.08c-.45-.56-.19-.23-.42-.51l-3.22-4a.87.87,0,0,1,.68-1.43l17.26.11a.92.92,0,0,1,.69.34L40.39,20.36a.87.87,0,0,1,0,1.05L31.53,33.84a.88.88,0,0,1-.72.36H13.37a.87.87,0,0,1-.72-1.37l4.46-6.57a.88.88,0,0,0-.72-1.37H13.05a.89.89,0,0,0-.72.37L3.64,37.44a.88.88,0,0,0,.71,1.39H33.23a.87.87,0,0,0,.71-.37l12-17a.89.89,0,0,0,0-1L32.4,2.09a.86.86,0,0,0-.7-.35h-29A.88.88,0,0,0,2,3.14L11.69,16A2.73,2.73,0,0,0,14,17l-.54-.09"/><path class="cls-2" d="M22.84,24.49H19.2a.88.88,0,0,1-.76-1.31l1.67-2.92a.86.86,0,0,1,.76-.45h3.64a.88.88,0,0,1,.76,1.31L23.6,24.05A.86.86,0,0,1,22.84,24.49Z"/></svg>