<svg width="39" height="27" viewBox="0 0 39 27" fill="none" xmlns="http://www.w3.org/2000/svg">
<path d="M25 14.6471H38M25 14.6471V20.0294V24.5C25 25.3284 25.6716 26 26.5 26H36.5C37.3284 26 38 25.3284 38 24.5V20.0294V14.6471M25 14.6471V7.61765C25 6.78922 25.6716 6.11765 26.5 6.11765H38H6.83333C6.00491 6.11765 5.33333 6.78922 5.33333 7.61765V24.5C5.33333 25.3284 4.66176 26 3.83333 26H2.5C1.67157 26 1 25.3284 1 24.5V2.5C1 1.67157 1.67157 1 2.5 1H25H36.5C37.3284 1 38 1.67157 38 2.5V14.6471" stroke="#4D44B5" stroke-width="1.8"/>
</svg>
