<svg id="Layer_1" data-name="Layer 1" xmlns="http://www.w3.org/2000/svg" viewBox="0 0 257.53 40.09"><defs><style>.cls-1{fill:#35398e;}.cls-2{fill:#1d1d1b;}.cls-3{fill:#ec663b;}</style></defs><path class="cls-1" d="M52.21,22.81a8.82,8.82,0,0,1,8-4.93,8.66,8.66,0,0,1,3.76.86A7.44,7.44,0,0,1,66.86,21V8.43H72v30H66.86v-3a6.92,6.92,0,0,1-2.66,2.41,8.35,8.35,0,0,1-4,.91,8.65,8.65,0,0,1-4.67-1.31,9.17,9.17,0,0,1-3.34-3.7A12,12,0,0,1,51,28.25,11.75,11.75,0,0,1,52.21,22.81Zm14,2.32a5.26,5.26,0,0,0-2-2.05,5.33,5.33,0,0,0-2.66-.71A5.16,5.16,0,0,0,57,25.09a6.34,6.34,0,0,0-.75,3.16A6.54,6.54,0,0,0,57,31.44a5.33,5.33,0,0,0,2,2.1,5,5,0,0,0,2.61.73,5.24,5.24,0,0,0,2.66-.72,5.16,5.16,0,0,0,2-2,6.62,6.62,0,0,0,.73-3.19A6.62,6.62,0,0,0,66.17,25.13Z"/><path class="cls-1" d="M95.68,29.85H80.91a5,5,0,0,0,1.53,3.43,4.72,4.72,0,0,0,3.32,1.24,4.16,4.16,0,0,0,4-2.44h5.51A9.15,9.15,0,0,1,92,36.87a9.73,9.73,0,0,1-6.09,1.88,10.6,10.6,0,0,1-5.24-1.29A9.17,9.17,0,0,1,77,33.79a11.25,11.25,0,0,1-1.29-5.47A11.46,11.46,0,0,1,77,22.81a9,9,0,0,1,3.58-3.65,10.73,10.73,0,0,1,5.29-1.28A10.59,10.59,0,0,1,91,19.13a8.7,8.7,0,0,1,3.54,3.52,10.62,10.62,0,0,1,1.26,5.23A11.7,11.7,0,0,1,95.68,29.85Zm-5.14-3.43a4,4,0,0,0-1.42-3.15,5.07,5.07,0,0,0-3.4-1.19,4.63,4.63,0,0,0-3.19,1.15,5.11,5.11,0,0,0-1.59,3.19Z"/><path class="cls-1" d="M102.83,37.86a7.78,7.78,0,0,1-3.11-2.43A6.09,6.09,0,0,1,98.46,32h5.14A2.8,2.8,0,0,0,104.75,34a4,4,0,0,0,2.5.77,3.89,3.89,0,0,0,2.28-.58,1.77,1.77,0,0,0,.82-1.5,1.57,1.57,0,0,0-1-1.48,20,20,0,0,0-3.2-1.07,29.56,29.56,0,0,1-3.7-1.13A6.45,6.45,0,0,1,100,27.19a4.82,4.82,0,0,1-1-3.25,5.18,5.18,0,0,1,1-3.06,6.4,6.4,0,0,1,2.77-2.19,10.3,10.3,0,0,1,4.25-.81,8.72,8.72,0,0,1,5.77,1.81,6.72,6.72,0,0,1,2.37,4.87h-4.89a2.61,2.61,0,0,0-1-1.91,3.68,3.68,0,0,0-2.39-.72,3.85,3.85,0,0,0-2.13.51,1.65,1.65,0,0,0-.75,1.43,1.67,1.67,0,0,0,1,1.55,16,16,0,0,0,3.18,1.07,27.45,27.45,0,0,1,3.61,1.14,6.38,6.38,0,0,1,2.46,1.8,5,5,0,0,1,1.08,3.23,5.33,5.33,0,0,1-1,3.14A6.36,6.36,0,0,1,111.5,38a11.68,11.68,0,0,1-8.67-.11Z"/><path class="cls-1" d="M131.4,38.43l-6.86-8.61v8.61h-5.1v-30h5.1V26.79l6.79-8.58H138l-8.9,10.15,9,10.07Z"/><path class="cls-2" d="M159.39,29.85H144.61a5,5,0,0,0,1.53,3.43,4.72,4.72,0,0,0,3.32,1.24,4.16,4.16,0,0,0,4-2.44H159a9.15,9.15,0,0,1-3.36,4.79,9.73,9.73,0,0,1-6.09,1.88,10.56,10.56,0,0,1-5.23-1.29,9.14,9.14,0,0,1-3.62-3.67,11.25,11.25,0,0,1-1.29-5.47,11.35,11.35,0,0,1,1.28-5.51,8.91,8.91,0,0,1,3.57-3.65,10.73,10.73,0,0,1,5.29-1.28,10.59,10.59,0,0,1,5.16,1.25,8.7,8.7,0,0,1,3.54,3.52,10.62,10.62,0,0,1,1.26,5.23A12.93,12.93,0,0,1,159.39,29.85Zm-5.15-3.43a4,4,0,0,0-1.42-3.15,5.06,5.06,0,0,0-3.39-1.19,4.64,4.64,0,0,0-3.2,1.15,5,5,0,0,0-1.58,3.19Z"/><path class="cls-2" d="M163.16,22.81a9,9,0,0,1,3.32-3.65,8.86,8.86,0,0,1,4.69-1.28,8.21,8.21,0,0,1,4,.92,8,8,0,0,1,2.72,2.3V18.21H183V38.43h-5.14v-3a7.65,7.65,0,0,1-2.72,2.35,8.35,8.35,0,0,1-4,.93,8.55,8.55,0,0,1-4.65-1.31,9.19,9.19,0,0,1-3.32-3.7,12,12,0,0,1-1.22-5.49A11.75,11.75,0,0,1,163.16,22.81Zm14,2.32a5.26,5.26,0,0,0-2-2.05,5.34,5.34,0,0,0-2.67-.71,5.07,5.07,0,0,0-2.62.7,5.15,5.15,0,0,0-2,2,6.45,6.45,0,0,0-.74,3.16,6.65,6.65,0,0,0,.74,3.19,5.48,5.48,0,0,0,2,2.1,5.1,5.1,0,0,0,2.61.73,5.25,5.25,0,0,0,2.67-.72,5.16,5.16,0,0,0,2-2,6.62,6.62,0,0,0,.73-3.19A6.62,6.62,0,0,0,177.12,25.13Z"/><path class="cls-2" d="M205,20.2a8.74,8.74,0,0,1,2.22,6.37V38.43h-5.1V27.26a5.25,5.25,0,0,0-1.21-3.7,4.24,4.24,0,0,0-3.28-1.3,4.35,4.35,0,0,0-3.34,1.3,5.16,5.16,0,0,0-1.22,3.7V38.43H188V18.21h5.11v2.52a7.15,7.15,0,0,1,2.6-2.06,8.07,8.07,0,0,1,3.49-.75A7.8,7.8,0,0,1,205,20.2Z"/><path class="cls-2" d="M212,22.81a8.82,8.82,0,0,1,8.05-4.93,8.66,8.66,0,0,1,3.76.86A7.44,7.44,0,0,1,226.66,21V11.43h5.18v27h-5.18v-3A6.92,6.92,0,0,1,224,37.84a8.32,8.32,0,0,1-4,.91,8.65,8.65,0,0,1-4.67-1.31,9.17,9.17,0,0,1-3.34-3.7,12,12,0,0,1-1.22-5.49A11.75,11.75,0,0,1,212,22.81Zm14,2.32a5.19,5.19,0,0,0-2-2.05,5.33,5.33,0,0,0-2.66-.71,5.16,5.16,0,0,0-4.58,2.72,6.34,6.34,0,0,0-.75,3.16,6.54,6.54,0,0,0,.75,3.19,5.33,5.33,0,0,0,2,2.1,5,5,0,0,0,2.61.73,5.24,5.24,0,0,0,2.66-.72,5.1,5.1,0,0,0,2-2,6.51,6.51,0,0,0,.73-3.19A6.51,6.51,0,0,0,226,25.13Z"/><path class="cls-2" d="M240.56,37.46a9.23,9.23,0,0,1-3.66-3.67,11,11,0,0,1-1.34-5.47,10.76,10.76,0,0,1,1.37-5.47,9.49,9.49,0,0,1,3.74-3.67,11.41,11.41,0,0,1,10.58,0A9.49,9.49,0,0,1,255,22.85a10.76,10.76,0,0,1,1.37,5.47A10.48,10.48,0,0,1,255,33.79a9.69,9.69,0,0,1-3.79,3.67,11,11,0,0,1-5.34,1.29A10.7,10.7,0,0,1,240.56,37.46Zm7.86-3.83a4.93,4.93,0,0,0,2-2,6.88,6.88,0,0,0,.73-3.28,6.07,6.07,0,0,0-1.52-4.43,5,5,0,0,0-3.7-1.55,4.85,4.85,0,0,0-3.67,1.55,6.19,6.19,0,0,0-1.48,4.43,6.22,6.22,0,0,0,1.45,4.43,4.72,4.72,0,0,0,3.63,1.55A5.27,5.27,0,0,0,248.42,33.63Z"/><path class="cls-3" d="M127.13,7.36H63.53a1.1,1.1,0,0,1-.78-1.86l4.07-3.17a2.79,2.79,0,0,1,2-.83h63.43A1.09,1.09,0,0,1,133,3.35l-4.21,3.39C128.18,7.35,128.08,7.36,127.13,7.36Z"/><path class="cls-1" d="M12.41,16.93l12.9-.1a.85.85,0,0,1,.77.44l1.76,3.09a.86.86,0,0,1,0,.9l-4.17,6.57a.88.88,0,0,0,.74,1.35h3.25a.9.9,0,0,0,.73-.39l5-7.49a.88.88,0,0,0,0-1l-4.94-7.56a.87.87,0,0,0-.73-.4H14c-.32,0-.52.05-.7-.2l-.08-.07c-.45-.56-.19-.23-.42-.51l-3.22-4a.88.88,0,0,1,.68-1.44l17.26.12a.89.89,0,0,1,.69.34L38.79,20.26a.89.89,0,0,1,0,1L29.93,33.73a.89.89,0,0,1-.71.37H11.77a.88.88,0,0,1-.72-1.37l4.46-6.57a.88.88,0,0,0-.72-1.37H11.45a.87.87,0,0,0-.71.37L2,37.34a.88.88,0,0,0,.71,1.39H31.63a.86.86,0,0,0,.71-.38l12-17a.89.89,0,0,0,0-1L30.81,2a.9.9,0,0,0-.71-.36h-29A.88.88,0,0,0,.43,3l9.66,12.83a2.73,2.73,0,0,0,2.32,1.06l-.54-.09"/><path class="cls-3" d="M21.24,24.39H17.6a.88.88,0,0,1-.76-1.31l1.67-2.92a.88.88,0,0,1,.76-.45h3.64A.88.88,0,0,1,23.67,21L22,24A.87.87,0,0,1,21.24,24.39Z"/></svg>