<svg id="Layer_1" data-name="Layer 1" xmlns="http://www.w3.org/2000/svg" viewBox="0 0 250.66 49.92"><defs><style>.cls-1{fill:#fff;}.cls-2{fill:#dd6e47;}</style></defs><path d="M43.72,26a8.8,8.8,0,0,1,8-4.93,8.62,8.62,0,0,1,3.76.86,7.44,7.44,0,0,1,2.84,2.28V11.65h5.19v30H58.36v-3a6.92,6.92,0,0,1-2.66,2.41,8.32,8.32,0,0,1-4,.91,8.65,8.65,0,0,1-4.67-1.31A9.07,9.07,0,0,1,43.72,37a11.87,11.87,0,0,1-1.23-5.49A11.63,11.63,0,0,1,43.72,26Zm14,2.32a5.19,5.19,0,0,0-2-2.05A5.3,5.3,0,0,0,53,25.59a5.1,5.1,0,0,0-2.63.7,5.2,5.2,0,0,0-1.95,2,6.34,6.34,0,0,0-.75,3.16,6.54,6.54,0,0,0,.75,3.19,5.4,5.4,0,0,0,2,2.1,5,5,0,0,0,2.61.73,5.21,5.21,0,0,0,2.66-.72,5.1,5.1,0,0,0,2-2,6.51,6.51,0,0,0,.73-3.19A6.51,6.51,0,0,0,57.67,28.35Z"/><path d="M87.19,33.07H72.41a5,5,0,0,0,1.53,3.43,4.72,4.72,0,0,0,3.32,1.24,4.16,4.16,0,0,0,4-2.44h5.51a9.19,9.19,0,0,1-3.35,4.79A9.78,9.78,0,0,1,77.37,42a10.56,10.56,0,0,1-5.23-1.29A9,9,0,0,1,68.53,37a11.14,11.14,0,0,1-1.3-5.47A11.47,11.47,0,0,1,68.51,26a8.91,8.91,0,0,1,3.57-3.65,11.44,11.44,0,0,1,10.46,0,8.67,8.67,0,0,1,3.53,3.52,10.62,10.62,0,0,1,1.26,5.23A12.93,12.93,0,0,1,87.19,33.07ZM82,29.64a4,4,0,0,0-1.42-3.15,5,5,0,0,0-3.39-1.19A4.64,4.64,0,0,0,74,26.45a5,5,0,0,0-1.58,3.19Z"/><path d="M94.34,41.08a7.75,7.75,0,0,1-3.12-2.43A6.09,6.09,0,0,1,90,35.26H95.1a2.8,2.8,0,0,0,1.15,1.93,4,4,0,0,0,2.5.77,3.86,3.86,0,0,0,2.28-.58,1.77,1.77,0,0,0,.82-1.5,1.57,1.57,0,0,0-1-1.48,19.85,19.85,0,0,0-3.19-1.07A29.25,29.25,0,0,1,94,32.2a6.52,6.52,0,0,1-2.48-1.79,4.82,4.82,0,0,1-1-3.25,5.25,5.25,0,0,1,1-3.06,6.4,6.4,0,0,1,2.77-2.19,10.33,10.33,0,0,1,4.25-.81,8.72,8.72,0,0,1,5.77,1.81,6.72,6.72,0,0,1,2.37,4.87h-4.89a2.64,2.64,0,0,0-1-1.91,3.72,3.72,0,0,0-2.39-.72,3.86,3.86,0,0,0-2.14.51,1.64,1.64,0,0,0-.74,1.43,1.67,1.67,0,0,0,1,1.55,15.83,15.83,0,0,0,3.17,1.07,27.45,27.45,0,0,1,3.61,1.14,6.49,6.49,0,0,1,2.47,1.8,5,5,0,0,1,1.07,3.23,5.4,5.4,0,0,1-1,3.14A6.4,6.4,0,0,1,103,41.19a11.66,11.66,0,0,1-8.66-.11Z"/><path d="M122.9,41.65,116.05,33v8.61h-5.11v-30h5.11V30l6.78-8.58h6.64l-8.9,10.15,9,10.07Z"/><path class="cls-1" d="M150.89,33.07H136.11a5,5,0,0,0,1.53,3.43A4.72,4.72,0,0,0,141,37.74a4.16,4.16,0,0,0,4-2.44h5.51a9.19,9.19,0,0,1-3.35,4.79,9.78,9.78,0,0,1-6.1,1.88,10.56,10.56,0,0,1-5.23-1.29A9,9,0,0,1,132.23,37a11.14,11.14,0,0,1-1.3-5.47A11.47,11.47,0,0,1,132.21,26a8.91,8.91,0,0,1,3.57-3.65,10.76,10.76,0,0,1,5.29-1.28,10.63,10.63,0,0,1,5.17,1.25,8.7,8.7,0,0,1,3.54,3.52A10.73,10.73,0,0,1,151,31.1,12.93,12.93,0,0,1,150.89,33.07Zm-5.15-3.43a4,4,0,0,0-1.42-3.15,5,5,0,0,0-3.39-1.19,4.6,4.6,0,0,0-3.19,1.15,5,5,0,0,0-1.59,3.19Z"/><path class="cls-1" d="M154.66,26A9.06,9.06,0,0,1,158,22.38a8.86,8.86,0,0,1,4.69-1.28,8.21,8.21,0,0,1,4,.92,7.89,7.89,0,0,1,2.72,2.3V21.43h5.14V41.65h-5.14v-3A7.57,7.57,0,0,1,166.63,41a8.31,8.31,0,0,1-4,.93A8.56,8.56,0,0,1,158,40.66a9.27,9.27,0,0,1-3.32-3.7,12,12,0,0,1-1.22-5.49A11.75,11.75,0,0,1,154.66,26Zm14,2.32a5.26,5.26,0,0,0-2-2.05,5.33,5.33,0,0,0-2.66-.71,5.1,5.1,0,0,0-2.63.7,5.2,5.2,0,0,0-2,2,6.34,6.34,0,0,0-.75,3.16,6.54,6.54,0,0,0,.75,3.19,5.4,5.4,0,0,0,2,2.1,5,5,0,0,0,2.61.73,5.24,5.24,0,0,0,2.66-.72,5.16,5.16,0,0,0,2-2,6.51,6.51,0,0,0,.73-3.19A6.51,6.51,0,0,0,168.62,28.35Z"/><path class="cls-1" d="M196.53,23.42a8.75,8.75,0,0,1,2.23,6.37V41.65h-5.11V30.48a5.2,5.2,0,0,0-1.21-3.7,4.23,4.23,0,0,0-3.28-1.3,4.36,4.36,0,0,0-3.34,1.3,5.21,5.21,0,0,0-1.22,3.7V41.65h-5.11V21.43h5.11V24a7.1,7.1,0,0,1,2.61-2.06,8.05,8.05,0,0,1,3.48-.75A7.79,7.79,0,0,1,196.53,23.42Z"/><path class="cls-1" d="M203.52,26a8.8,8.8,0,0,1,8-4.93,8.62,8.62,0,0,1,3.76.86,7.55,7.55,0,0,1,2.85,2.28V14.65h5.18v27h-5.18v-3a7,7,0,0,1-2.67,2.41,8.32,8.32,0,0,1-4,.91,8.65,8.65,0,0,1-4.67-1.31,9.07,9.07,0,0,1-3.33-3.7,11.87,11.87,0,0,1-1.23-5.49A11.63,11.63,0,0,1,203.52,26Zm13.95,2.32a5.19,5.19,0,0,0-2-2.05,5.3,5.3,0,0,0-2.66-.71,5.1,5.1,0,0,0-2.63.7,5.2,5.2,0,0,0-2,2,6.34,6.34,0,0,0-.75,3.16,6.54,6.54,0,0,0,.75,3.19,5.4,5.4,0,0,0,2,2.1,5,5,0,0,0,2.61.73,5.21,5.21,0,0,0,2.66-.72,5.1,5.1,0,0,0,2-2,6.51,6.51,0,0,0,.73-3.19A6.51,6.51,0,0,0,217.47,28.35Z"/><path class="cls-1" d="M232.06,40.68A9.36,9.36,0,0,1,228.4,37a10.94,10.94,0,0,1-1.33-5.47,10.75,10.75,0,0,1,1.36-5.47,9.56,9.56,0,0,1,3.74-3.67,11.41,11.41,0,0,1,10.58,0,9.43,9.43,0,0,1,3.74,3.67,10.66,10.66,0,0,1,1.37,5.47,10.57,10.57,0,0,1-1.4,5.47,9.71,9.71,0,0,1-3.8,3.67A11,11,0,0,1,237.32,42,10.7,10.7,0,0,1,232.06,40.68Zm7.87-3.83a5,5,0,0,0,1.95-2,6.88,6.88,0,0,0,.73-3.28,6.07,6.07,0,0,0-1.52-4.43,5,5,0,0,0-3.7-1.55,4.85,4.85,0,0,0-3.67,1.55,6.19,6.19,0,0,0-1.47,4.43A6.27,6.27,0,0,0,233.69,36a4.72,4.72,0,0,0,3.63,1.55A5.34,5.34,0,0,0,239.93,36.85Z"/><path class="cls-2" d="M118.63,10.58H55a1.09,1.09,0,0,1-.77-1.86l4.06-3.17a2.8,2.8,0,0,1,2-.83h63.43a1.09,1.09,0,0,1,.78,1.85L120.3,10C119.69,10.57,119.58,10.58,118.63,10.58Z"/><path class="cls-2" d="M17.58,31.75H14.91a.64.64,0,0,1-.56-1l1.22-2.15a.64.64,0,0,1,.56-.33H18.8a.64.64,0,0,1,.56,1l-1.22,2.15A.66.66,0,0,1,17.58,31.75Z"/><path d="M11.12,26.3l9.48-.08a.64.64,0,0,1,.56.33l1.3,2.27a.65.65,0,0,1,0,.66L19.37,34.3a.65.65,0,0,0,.55,1H22.3a.64.64,0,0,0,.54-.28l3.67-5.5a.65.65,0,0,0,0-.71l-3.62-5.56a.65.65,0,0,0-.54-.29H12.27c-.24,0-.39,0-.52-.15l-.06-.05-.3-.37L9,19.46a.64.64,0,0,1,.5-1.05l12.68.08a.62.62,0,0,1,.5.25l7.8,10a.66.66,0,0,1,0,.77L24,38.64a.65.65,0,0,1-.53.27H10.65a.65.65,0,0,1-.53-1l3.28-4.82a.65.65,0,0,0-.53-1H10.41a.64.64,0,0,0-.52.27L3.5,41.29a.65.65,0,0,0,.53,1H25.24a.63.63,0,0,0,.52-.28l8.82-12.5a.63.63,0,0,0,0-.75L24.63,15.32a.65.65,0,0,0-.52-.26H2.83a.64.64,0,0,0-.51,1l7.1,9.43a2,2,0,0,0,1.7.78l-.39-.07"/></svg>