<svg xmlns:dc="http://purl.org/dc/elements/1.1/" xmlns:cc="http://creativecommons.org/ns#" xmlns:rdf="http://www.w3.org/1999/02/22-rdf-syntax-ns#" xmlns:svg="http://www.w3.org/2000/svg" xmlns="http://www.w3.org/2000/svg" xmlns:sodipodi="http://sodipodi.sourceforge.net/DTD/sodipodi-0.dtd" xmlns:inkscape="http://www.inkscape.org/namespaces/inkscape" viewBox="0 0 8.4666667 10.583333625" version="1.1" x="0px" y="0px"><svg:g><svg:path style="color:#000000;font-style:normal;font-variant:normal;font-weight:normal;font-stretch:normal;font-size:medium;line-height:normal;font-family:sans-serif;font-variant-ligatures:normal;font-variant-position:normal;font-variant-caps:normal;font-variant-numeric:normal;font-variant-alternates:normal;font-feature-settings:normal;text-indent:0;text-align:start;text-decoration:none;text-decoration-line:none;text-decoration-style:solid;text-decoration-color:#000000;letter-spacing:normal;word-spacing:normal;text-transform:none;writing-mode:lr-tb;direction:ltr;text-orientation:mixed;dominant-baseline:auto;baseline-shift:baseline;text-anchor:start;white-space:normal;shape-padding:0;clip-rule:nonzero;display:inline;overflow:visible;visibility:visible;opacity:1;isolation:auto;mix-blend-mode:normal;color-interpolation:sRGB;color-interpolation-filters:linearRGB;solid-color:#000000;solid-opacity:1;vector-effect:none;fill:#000000;fill-opacity:1;fill-rule:nonzero;stroke:none;stroke-width:0.52916664;stroke-linecap:round;stroke-linejoin:round;stroke-miterlimit:4;stroke-dasharray:none;stroke-dashoffset:0;stroke-opacity:1;color-rendering:auto;image-rendering:auto;shape-rendering:auto;text-rendering:auto;enable-background:accumulate" d="m 2.4511432,-0.0020468 a 0.26460981,0.26460981 0 0 0 -0.2599319,0.267684 v 0.324011 H 0.96647885 a 0.26460979,0.26460979 0 0 0 -0.0253206,0 0.26460979,0.26460979 0 0 0 -0.23822819,0.26355 v 1.56838 a 0.2646485,0.2646485 0 0 0 0,0.03669 v 5.744869 a 0.26460979,0.26460979 0 0 0 0.26354881,0.265617 H 7.4999303 a 0.26460979,0.26460979 0 0 0 0.2635514,-0.265617 v -5.740218 a 0.2646485,0.2646485 0 0 0 0,-0.04341 V 0.8531982 A 0.26460979,0.26460979 0 0 0 7.4999303,0.5896482 H 6.2752005 v -0.324011 a 0.26460981,0.26460981 0 0 0 -0.2676843,-0.267684 0.26460981,0.26460981 0 0 0 -0.2614824,0.267684 v 0.324011 H 2.7203779 v -0.324011 a 0.26460981,0.26460981 0 0 0 -0.2692347,-0.267684 z m -1.2190465,1.120862 h 0.9591146 v 0.322461 a 0.2646485,0.2646485 0 1 0 0.5291666,0 v -0.322461 h 3.0256559 v 0.322461 a 0.2646485,0.2646485 0 1 0 0.5291667,0 v -0.322461 h 0.9591146 v 1.056783 H 1.2320967 Z m 0,1.58595 h 6.0022184 v 5.234822 H 1.2320967 Z m 4.3811269,1.404565 a 0.26460987,0.26460987 0 0 0 -0.1819011,0.07596 L 3.4707204,6.0937052 3.0934828,5.2090042 a 0.26466472,0.26466472 0 1 0 -0.4862751,0.208773 l 0.5291667,1.238168 a 0.26460987,0.26460987 0 0 0 0.4278788,0.0863 L 5.8008105,4.5645992 A 0.26460987,0.26460987 0 0 0 5.6132236,4.1093302 Z"/></svg:g><text x="0" y="23.4666669" fill="#000000" font-size="5px" font-weight="bold" font-family="'Helvetica Neue', Helvetica, Arial-Unicode, Arial, Sans-serif">Created by Larea</text><text x="0" y="28.4666669" fill="#000000" font-size="5px" font-weight="bold" font-family="'Helvetica Neue', Helvetica, Arial-Unicode, Arial, Sans-serif">from the Noun Project</text></svg>